<svg width="155" height="23" viewBox="0 0 155 23" fill="none" xmlns="http://www.w3.org/2000/svg">
<path d="M10.56 17.85V22.2H7.95C6.09 22.2 4.64 21.75 3.6 20.85C2.56 19.93 2.04 18.44 2.04 16.38V9.72H0V5.46H2.04V1.38H7.17V5.46H10.53V9.72H7.17V16.44C7.17 16.94 7.29 17.3 7.53 17.52C7.77 17.74 8.17 17.85 8.73 17.85H10.56Z" fill="white"/>
<path d="M18.5475 8.25C19.1475 7.33 19.8975 6.61 20.7975 6.09C21.6975 5.55 22.6975 5.28 23.7975 5.28V10.71H22.3875C21.1075 10.71 20.1475 10.99 19.5075 11.55C18.8675 12.09 18.5475 13.05 18.5475 14.43V22.2H13.4175V5.46H18.5475V8.25Z" fill="white"/>
<path d="M25.2295 13.8C25.2295 12.08 25.5495 10.57 26.1895 9.27C26.8495 7.97 27.7395 6.97 28.8595 6.27C29.9795 5.57 31.2295 5.22 32.6095 5.22C33.7895 5.22 34.8195 5.46 35.6995 5.94C36.5995 6.42 37.2895 7.05 37.7695 7.83V5.46H42.8995V22.2H37.7695V19.83C37.2695 20.61 36.5695 21.24 35.6695 21.72C34.7895 22.2 33.7595 22.44 32.5795 22.44C31.2195 22.44 29.9795 22.09 28.8595 21.39C27.7395 20.67 26.8495 19.66 26.1895 18.36C25.5495 17.04 25.2295 15.52 25.2295 13.8ZM37.7695 13.83C37.7695 12.55 37.4095 11.54 36.6895 10.8C35.9895 10.06 35.1295 9.69 34.1095 9.69C33.0895 9.69 32.2195 10.06 31.4995 10.8C30.7995 11.52 30.4495 12.52 30.4495 13.8C30.4495 15.08 30.7995 16.1 31.4995 16.86C32.2195 17.6 33.0895 17.97 34.1095 17.97C35.1295 17.97 35.9895 17.6 36.6895 16.86C37.4095 16.12 37.7695 15.11 37.7695 13.83Z" fill="white"/>
<path d="M54.1409 17.4L57.7709 5.46H63.2309L57.2909 22.2H50.9609L45.0209 5.46H50.5109L54.1409 17.4Z" fill="white"/>
<path d="M81.1702 13.56C81.1702 14.04 81.1402 14.54 81.0802 15.06H69.4702C69.5502 16.1 69.8802 16.9 70.4602 17.46C71.0602 18 71.7902 18.27 72.6502 18.27C73.9302 18.27 74.8202 17.73 75.3202 16.65H80.7802C80.5002 17.75 79.9902 18.74 79.2502 19.62C78.5302 20.5 77.6202 21.19 76.5202 21.69C75.4202 22.19 74.1902 22.44 72.8302 22.44C71.1902 22.44 69.7302 22.09 68.4502 21.39C67.1702 20.69 66.1702 19.69 65.4502 18.39C64.7302 17.09 64.3702 15.57 64.3702 13.83C64.3702 12.09 64.7202 10.57 65.4202 9.27C66.1402 7.97 67.1402 6.97 68.4202 6.27C69.7002 5.57 71.1702 5.22 72.8302 5.22C74.4502 5.22 75.8902 5.56 77.1502 6.24C78.4102 6.92 79.3902 7.89 80.0902 9.15C80.8102 10.41 81.1702 11.88 81.1702 13.56ZM75.9202 12.21C75.9202 11.33 75.6202 10.63 75.0202 10.11C74.4202 9.59 73.6702 9.33 72.7702 9.33C71.9102 9.33 71.1802 9.58 70.5802 10.08C70.0002 10.58 69.6402 11.29 69.5002 12.21H75.9202Z" fill="white"/>
<path d="M89.0065 0V22.2H83.8765V0H89.0065Z" fill="white"/>
<path d="M106.321 7.83C106.801 7.05 107.491 6.42 108.391 5.94C109.291 5.46 110.321 5.22 111.481 5.22C112.861 5.22 114.111 5.57 115.231 6.27C116.351 6.97 117.231 7.97 117.871 9.27C118.531 10.57 118.861 12.08 118.861 13.8C118.861 15.52 118.531 17.04 117.871 18.36C117.231 19.66 116.351 20.67 115.231 21.39C114.111 22.09 112.861 22.44 111.481 22.44C110.301 22.44 109.271 22.21 108.391 21.75C107.511 21.27 106.821 20.64 106.321 19.86V22.2H101.191V0H106.321V7.83ZM113.641 13.8C113.641 12.52 113.281 11.52 112.561 10.8C111.861 10.06 110.991 9.69 109.951 9.69C108.931 9.69 108.061 10.06 107.341 10.8C106.641 11.54 106.291 12.55 106.291 13.83C106.291 15.11 106.641 16.12 107.341 16.86C108.061 17.6 108.931 17.97 109.951 17.97C110.971 17.97 111.841 17.6 112.561 16.86C113.281 16.1 113.641 15.08 113.641 13.8Z" fill="white"/>
<path d="M137.332 13.56C137.332 14.04 137.302 14.54 137.242 15.06H125.632C125.712 16.1 126.042 16.9 126.622 17.46C127.222 18 127.952 18.27 128.812 18.27C130.092 18.27 130.982 17.73 131.482 16.65H136.942C136.662 17.75 136.152 18.74 135.412 19.62C134.692 20.5 133.782 21.19 132.682 21.69C131.582 22.19 130.352 22.44 128.992 22.44C127.352 22.44 125.892 22.09 124.612 21.39C123.332 20.69 122.332 19.69 121.612 18.39C120.892 17.09 120.532 15.57 120.532 13.83C120.532 12.09 120.882 10.57 121.582 9.27C122.302 7.97 123.302 6.97 124.582 6.27C125.862 5.57 127.332 5.22 128.992 5.22C130.612 5.22 132.052 5.56 133.312 6.24C134.572 6.92 135.552 7.89 136.252 9.15C136.972 10.41 137.332 11.88 137.332 13.56ZM132.082 12.21C132.082 11.33 131.782 10.63 131.182 10.11C130.582 9.59 129.832 9.33 128.932 9.33C128.072 9.33 127.342 9.58 126.742 10.08C126.162 10.58 125.802 11.29 125.662 12.21H132.082Z" fill="white"/>
<path d="M145.169 0V22.2H140.039V0H145.169Z" fill="white"/>
<path d="M154.016 0V22.2H148.886V0H154.016Z" fill="white"/>
<path d="M95.124 22.4399C94.224 22.4399 93.484 22.1799 92.904 21.6599C92.344 21.1199 92.064 20.4599 92.064 19.6799C92.064 18.8799 92.344 18.2099 92.904 17.6699C93.484 17.1299 94.224 16.8599 95.124 16.8599C96.004 16.8599 96.724 17.1299 97.284 17.6699C97.864 18.2099 98.154 18.8799 98.154 19.6799C98.154 20.4599 97.864 21.1199 97.284 21.6599C96.724 22.1799 96.004 22.4399 95.124 22.4399Z" fill="#4ACBBC"/>
</svg>
